<?xml version="1.0" encoding="UTF-8"?>
<!-- Generator: Adobe Illustrator 13.0.2, SVG Export Plug-In . SVG Version: 6.00 Build 14948)  -->
<!DOCTYPE svg PUBLIC "-//W3C//DTD SVG 1.1//EN" "http://www.w3.org/Graphics/SVG/1.1/DTD/svg11.dtd">
<svg xmlns:inkscape="http://www.inkscape.org/namespaces/inkscape" xmlns:rdf="http://www.w3.org/1999/02/22-rdf-syntax-ns#" xmlns:svg="http://www.w3.org/2000/svg" xmlns:cc="http://web.resource.org/cc/" xmlns:dc="http://purl.org/dc/elements/1.1/" xmlns:sodipodi="http://inkscape.sourceforge.net/DTD/sodipodi-0.dtd" xmlns="http://www.w3.org/2000/svg" xmlns:xlink="http://www.w3.org/1999/xlink" version="1.1" id="svg1441" sodipodi:docname="rubiks_cube_random_ptl.svg" sodipodi:version="0.32" sodipodi:docbase="/home/petri/Desktop/Omat Open ClipArt kuvat" inkscape:version="0.41" x="0px" y="0px" width="439.001px" height="478.279px" viewBox="66.999 69.283 439.001 478.279" style="enable-background:new 66.999 69.283 439.001 478.279;" xml:space="preserve">
<sodipodi:namedview showguides="false" inkscape:document-units="px" inkscape:zoom="0.37512071" inkscape:window-x="0" inkscape:pageshadow="2" inkscape:pageopacity="0.0" showborder="false" inkscape:window-height="691" inkscape:window-width="1024" inkscape:window-y="26" showgrid="false" pagecolor="#ffffff" bordercolor="#666666" borderopacity="1.0" inkscape:cx="90.549140" inkscape:current-layer="layer1" inkscape:cy="458.19113" id="base">
	</sodipodi:namedview>
<g id="layer1" inkscape:label="Layer 1" inkscape:groupmode="layer">
	<path id="rect11246" d="M72.535,206.583L278.994,70.476c4.312-2.843,15.927-0.43,25.941,5.389l184.236,107.062   c10.015,5.82,14.637,12.842,10.324,15.686L293.036,334.72c-4.312,2.844-15.927,0.432-25.941-5.389L82.858,222.269   C72.844,216.449,68.222,209.427,72.535,206.583z"/>
	<path id="rect27716" d="M296.238,326.58l199.098-130.729c6.031-3.961,10.805,3.262,10.661,16.131l-1.933,173.295   c-0.144,12.869-5.149,26.512-11.181,30.471l-199.098,130.73c-6.031,3.959-10.805-3.262-10.661-16.131l1.933-173.295   C285.201,344.183,290.207,330.541,296.238,326.58z"/>
	<path id="rect5005" style="fill:#E2E2E2;" d="M302.353,476.33l45.47-30.844c4.632-3.141,8.386-2.439,8.386,1.57v42.777   c0,4.008-3.754,9.805-8.386,12.945l-45.47,30.844c-4.632,3.141-8.386,2.439-8.386-1.57v-42.777   C293.967,485.267,297.721,479.47,302.353,476.33z"/>
	<path id="rect5765" style="fill:#FFE200;" d="M304.812,405.14l43.656-29.613c5.133-3.48,9.293-2.367,9.293,2.49v39.705   c0,4.857-4.16,11.617-9.293,15.098l-43.656,29.613c-5.132,3.48-9.293,2.367-9.293-2.49v-39.705   C295.52,415.38,299.681,408.621,304.812,405.14z"/>
	<path id="rect5767" style="fill:#F41809;" d="M300.96,337.263l51.362-34.84c3.004-2.037,5.44,2.211,5.44,9.49v30.936   c0,7.277-2.437,14.83-5.44,16.869l-51.362,34.838c-3.004,2.039-5.439-2.209-5.439-9.488v-30.936   C295.521,346.853,297.956,339.302,300.96,337.263z"/>
	<path id="rect5769" style="fill:#E2E2E2;" d="M375.099,286.56l45.889-30.873c4.656-3.133,8.432-0.568,8.432,5.727v34.496   c0,6.295-3.775,13.938-8.432,17.072l-45.889,30.873c-4.657,3.133-8.432,0.568-8.432-5.727v-34.496   C366.667,297.337,370.441,289.695,375.099,286.56z"/>
	<path id="rect5771" style="fill:#F41809;" d="M373.286,357.837l49.514-33.312c3.655-2.461,6.619,1.641,6.619,9.16v30.066   c0,7.518-2.964,15.607-6.619,18.066l-49.514,33.312c-3.656,2.459-6.619-1.641-6.619-9.16v-30.066   C366.667,368.386,369.63,360.296,373.286,357.837z"/>
	<path id="rect5773" style="fill:#E2E2E2;" d="M374.452,426.324l44.075-29.654c5.157-3.471,9.339,0.309,9.339,8.438v27.852   c0,8.131-4.182,17.535-9.339,21.004l-44.075,29.654c-5.157,3.471-9.339-0.309-9.339-8.439v-27.85   C365.113,439.197,369.295,429.792,374.452,426.324z"/>
	<path id="rect5775" style="fill:#0BD521;" d="M444.665,376.576l45.888-30.873c4.657-3.133,8.433-0.555,8.433,5.76v34.43   c0,6.312-3.775,13.971-8.433,17.104l-45.888,30.875c-4.657,3.133-8.433,0.555-8.433-5.76v-34.43   C436.232,387.369,440.008,379.71,444.665,376.576z"/>
	<path id="rect5777" style="fill:#FF7D00;" d="M444.773,311.105l47.7-32.094c4.157-2.797,7.526,0.158,7.526,6.598v33.973   c0,6.439-3.369,13.928-7.526,16.723l-47.7,32.094c-4.156,2.797-7.526-0.158-7.526-6.598v-33.973   C437.247,321.388,440.617,313.9,444.773,311.105z"/>
	<path id="rect5779" style="fill:#FF7D00;" d="M444.773,240.357l47.7-32.094c4.157-2.797,7.526-1.725,7.526,2.395v42.377   c0,4.119-3.369,9.727-7.526,12.521l-47.7,32.094c-4.156,2.797-7.526,1.725-7.526-2.395v-42.377   C437.247,248.759,440.617,243.152,444.773,240.357z"/>
	<path id="rect12043" d="M76.126,205.775L289.377,333.25c3.791,2.266,6.755,13.4,6.621,24.869l-2.016,171.5   c-0.135,11.469-3.317,18.928-7.108,16.662L73.623,418.806c-3.791-2.266-6.755-13.4-6.62-24.869l2.015-171.5   C69.152,210.968,72.335,203.509,76.126,205.775z"/>
	<path id="rect8055" style="fill:#FFE200;" d="M228.293,446.783l46.143,29.148c4.445,2.809,8.05,10.871,8.05,18.008v31.447   c0,7.139-3.604,10.646-8.05,7.838l-46.143-29.148c-4.445-2.809-8.049-10.871-8.049-18.008v-31.447   C220.244,447.484,223.848,443.974,228.293,446.783z"/>
	<path id="rect8815" style="fill:#0BD521;" d="M229.339,375.826l46.143,29.148c4.445,2.809,8.05,8.115,8.05,11.854v43.758   c0,3.738-3.604,4.49-8.05,1.684l-46.143-29.15c-4.445-2.809-8.049-8.113-8.049-11.852v-43.76   C221.29,373.771,224.894,373.017,229.339,375.826z"/>
	<path id="rect8817" style="fill:#FFE200;" d="M229.339,308.052l46.143,29.148c4.445,2.809,8.05,9.023,8.05,13.879v39.707   c0,4.855-3.604,6.516-8.05,3.709l-46.143-29.15c-4.445-2.809-8.049-9.021-8.049-13.879v-39.705   C221.29,306.904,224.894,305.244,229.339,308.052z"/>
	<path id="rect8819" style="fill:#F41809;" d="M158.22,402.431l46.143,29.148c4.446,2.809,8.05,10.084,8.05,16.25v34.965   c0,6.166-3.604,8.889-8.05,6.08l-46.143-29.15c-4.445-2.807-8.049-10.082-8.049-16.248v-34.965   C150.17,402.345,153.774,399.623,158.22,402.431z"/>
	<path id="rect8821" style="fill:#FFE200;" d="M158.22,333.066l46.143,29.15c4.446,2.807,8.05,10.441,8.05,17.053v33.357   c0,6.609-3.604,9.691-8.05,6.883l-46.143-29.148c-4.445-2.809-8.049-10.443-8.049-17.055v-33.357   C150.17,333.339,153.774,330.257,158.22,333.066z"/>
	<path id="rect8823" style="fill:#0000DD;" d="M158.73,266.244l46.143,29.148c4.445,2.809,8.049,9.383,8.049,14.682v38.1   c0,5.301-3.604,7.32-8.049,4.512l-46.143-29.148c-4.446-2.809-8.05-9.383-8.05-14.684v-38.098   C150.681,265.455,154.285,263.435,158.73,266.244z"/>
	<path id="rect8825" style="fill:#FF7D00;" d="M86.565,357.462l46.143,29.15c4.446,2.807,8.049,8.748,8.049,13.266v40.93   c0,4.52-3.604,5.906-8.049,3.098l-46.143-29.148c-4.446-2.809-8.049-8.75-8.049-13.268v-40.93   C78.516,356.041,82.119,354.654,86.565,357.462z"/>
	<path id="rect8827" style="fill:#FFE200;" d="M87.611,290.949l46.143,29.148c4.446,2.809,8.049,8.596,8.049,12.924v41.615   c0,4.33-3.604,5.562-8.049,2.754l-46.143-29.148c-4.446-2.809-8.049-8.594-8.049-12.924v-41.615   C79.562,289.373,83.165,288.14,87.611,290.949z"/>
	<path id="rect8829" style="fill:#E2E2E2;" d="M87.611,222.533l46.143,29.15c4.446,2.809,8.049,8.191,8.049,12.025v43.412   c0,3.834-3.604,4.664-8.049,1.855l-46.143-29.148c-4.446-2.809-8.049-8.193-8.049-12.025v-43.414   C79.562,220.556,83.165,219.726,87.611,222.533z"/>
	<path id="rect10429" style="fill:#0BD521;" d="M149.352,170.232l51.762,30.957c2.556,1.529,0.342,5.602-4.946,9.098l-39.69,26.238   c-5.288,3.496-11.646,5.09-14.203,3.561l-51.762-30.957c-2.556-1.529-0.342-5.602,4.946-9.098l39.69-26.238   C140.438,170.296,146.796,168.703,149.352,170.232z"/>
	<path id="rect11189" style="fill:#E2E2E2;" d="M219.754,214.064l51.762,30.957c2.557,1.529,0.342,5.602-4.945,9.098l-39.69,26.238   c-5.288,3.496-11.646,5.09-14.203,3.561l-51.762-30.957c-2.556-1.529-0.342-5.602,4.946-9.098l39.69-26.238   C210.839,214.128,217.198,212.535,219.754,214.064z"/>
	<path id="rect11191" style="fill:#0BD521;" d="M292.042,257.279l51.762,30.957c2.557,1.529,0.342,5.604-4.946,9.098l-39.689,26.238   c-5.288,3.496-11.646,5.09-14.203,3.562l-51.762-30.959c-2.556-1.529-0.342-5.602,4.946-9.098l39.69-26.238   C283.127,257.343,289.485,255.75,292.042,257.279z"/>
	<path id="rect11193" style="fill:#F41809;" d="M220.665,123.717l51.763,30.958c2.556,1.528,0.342,5.602-4.946,9.097l-39.69,26.238   c-5.288,3.496-11.646,5.09-14.203,3.561l-51.762-30.957c-2.556-1.529-0.342-5.602,4.946-9.098l39.69-26.238   C211.75,123.783,218.109,122.188,220.665,123.717z"/>
	<path id="rect11195" style="fill:#0BD521;" d="M291.966,166.326l51.762,30.957c2.556,1.529,0.342,5.602-4.946,9.098l-39.689,26.238   c-5.288,3.496-11.646,5.09-14.203,3.562l-51.762-30.959c-2.556-1.529-0.342-5.602,4.946-9.098l39.69-26.238   C283.051,166.39,289.409,164.796,291.966,166.326z"/>
	<path id="rect11197" style="fill:#FF7D00;" d="M365.783,210.482l51.762,30.957c2.557,1.529,0.342,5.602-4.946,9.098l-39.689,26.238   c-5.288,3.496-11.646,5.09-14.203,3.562l-51.762-30.959c-2.556-1.529-0.342-5.602,4.946-9.098l39.689-26.238   C356.868,210.546,363.227,208.953,365.783,210.482z"/>
	<path id="rect11199" style="fill:#E2E2E2;" d="M289.901,77.946l51.762,30.958c2.557,1.529,0.342,5.602-4.945,9.098l-39.69,26.238   c-5.287,3.496-11.646,5.09-14.202,3.562l-51.762-30.958c-2.556-1.529-0.342-5.602,4.946-9.098l39.689-26.238   C280.986,78.012,287.345,76.417,289.901,77.946z"/>
	<path id="rect11201" style="fill:#FFE200;" d="M363.237,120.5l51.762,30.958c2.557,1.528,0.342,5.602-4.946,9.098l-39.689,26.238   c-5.288,3.494-11.646,5.09-14.203,3.561l-51.762-30.958c-2.556-1.529-0.342-5.603,4.946-9.098l39.689-26.239   C354.322,120.565,360.681,118.971,363.237,120.5z"/>
	<path id="rect11203" style="fill:#F41809;" d="M435.067,164.679l51.762,30.957c2.556,1.529,0.342,5.604-4.946,9.098l-39.689,26.238   c-5.288,3.496-11.646,5.09-14.203,3.562l-51.762-30.959c-2.557-1.529-0.342-5.602,4.945-9.098l39.69-26.238   C426.152,164.744,432.511,163.15,435.067,164.679z"/>
	<path id="rect27914" style="opacity:0.4181;fill:#FFFFFF;enable-background:new    ;" d="M166.562,165.132l45.584,26.756   c3.303,1.939,3.867,4.029,1.26,4.67l0,0c-2.607,0.641-7.398-0.414-10.701-2.352l-45.584-26.758   c-3.303-1.938-3.867-4.029-1.26-4.668l0,0C158.469,162.14,163.26,163.193,166.562,165.132z"/>
	<path id="rect29432" style="opacity:0.4181;fill:#FFFFFF;enable-background:new    ;" d="M98.51,212.902l45.584,26.758   c3.303,1.938,3.867,4.029,1.26,4.668l0,0c-2.607,0.641-7.398-0.412-10.701-2.352L89.068,215.22c-3.303-1.939-3.867-4.029-1.26-4.67   l0,0C90.416,209.912,95.207,210.964,98.51,212.902z"/>
	<path id="rect29434" style="opacity:0.4181;fill:#FFFFFF;enable-background:new    ;" d="M92.51,286.902l45.584,26.758   c3.303,1.938,3.867,4.029,1.26,4.668l0,0c-2.607,0.641-7.398-0.412-10.701-2.352L83.068,289.22c-3.303-1.939-3.867-4.029-1.26-4.67   l0,0C84.416,283.912,89.207,284.964,92.51,286.902z"/>
	<path id="rect29436" style="opacity:0.4181;fill:#FFFFFF;enable-background:new    ;" d="M168.346,258.748l45.584,26.756   c3.303,1.939,3.867,4.029,1.26,4.67l0,0c-2.607,0.641-7.398-0.412-10.701-2.352l-45.584-26.756c-3.303-1.939-3.867-4.029-1.26-4.67   l0,0C160.252,255.755,165.043,256.808,168.346,258.748z"/>
	<path id="rect29438" style="opacity:0.4181;fill:#FFFFFF;enable-background:new    ;" d="M240.346,301.902l45.584,26.758   c3.303,1.938,3.867,4.029,1.26,4.668l0,0c-2.607,0.641-7.398-0.412-10.701-2.352l-45.584-26.756   c-3.303-1.939-3.867-4.029-1.26-4.67l0,0C232.252,298.912,237.043,299.964,240.346,301.902z"/>
	<path id="rect29440" style="opacity:0.4181;fill:#FFFFFF;enable-background:new    ;" d="M167.346,334.748l45.584,26.756   c3.303,1.939,3.867,4.029,1.26,4.67l0,0c-2.607,0.641-7.398-0.412-10.701-2.352l-45.584-26.756c-3.303-1.939-3.867-4.029-1.26-4.67   l0,0C159.252,331.755,164.043,332.808,167.346,334.748z"/>
	<path id="rect29442" style="opacity:0.4181;fill:#FFFFFF;enable-background:new    ;" d="M234.346,373.748l45.584,26.756   c3.303,1.939,3.867,4.029,1.26,4.67l0,0c-2.607,0.641-7.398-0.412-10.701-2.352l-45.584-26.756c-3.303-1.939-3.867-4.029-1.26-4.67   l0,0C226.252,370.755,231.043,371.808,234.346,373.748z"/>
	<path id="rect29444" style="opacity:0.4181;fill:#FFFFFF;enable-background:new    ;" d="M92.51,356.748l45.584,26.756   c3.303,1.939,3.867,4.029,1.26,4.67l0,0c-2.607,0.641-7.398-0.412-10.701-2.352l-45.584-26.756c-3.303-1.939-3.867-4.029-1.26-4.67   l0,0C84.416,353.755,89.207,354.808,92.51,356.748z"/>
	<path id="rect29446" style="opacity:0.4181;fill:#FFFFFF;enable-background:new    ;" d="M165.346,402.902l45.584,26.758   c3.303,1.938,3.867,4.029,1.26,4.668l0,0c-2.607,0.641-7.398-0.412-10.701-2.352l-45.584-26.756   c-3.303-1.939-3.867-4.029-1.26-4.67l0,0C157.252,399.912,162.043,400.964,165.346,402.902z"/>
	<path id="rect29448" style="opacity:0.4181;fill:#FFFFFF;enable-background:new    ;" d="M236.346,445.748l45.584,26.756   c3.303,1.939,3.867,4.029,1.26,4.67l0,0c-2.607,0.641-7.398-0.412-10.701-2.352l-45.584-26.756c-3.303-1.939-3.867-4.029-1.26-4.67   l0,0C228.252,442.755,233.043,443.808,236.346,445.748z"/>
	<path id="rect29450" style="opacity:0.4181;fill:#FFFFFF;enable-background:new    ;" d="M238.346,209.902l45.584,26.758   c3.303,1.938,3.867,4.029,1.26,4.668l0,0c-2.607,0.641-7.398-0.412-10.701-2.352l-45.584-26.756   c-3.303-1.939-3.867-4.029-1.26-4.67l0,0C230.252,206.912,235.043,207.964,238.346,209.902z"/>
	<path id="rect29452" style="opacity:0.4181;fill:#FFFFFF;enable-background:new    ;" d="M237.346,120.902l45.584,26.757   c3.303,1.938,3.867,4.029,1.26,4.669l0,0c-2.606,0.641-7.398-0.413-10.701-2.352l-45.584-26.756   c-3.303-1.939-3.867-4.029-1.26-4.669l0,0C229.252,117.911,234.043,118.964,237.346,120.902z"/>
	<path id="rect29454" style="opacity:0.4181;fill:#FFFFFF;enable-background:new    ;" d="M312.51,163.748l45.585,26.756   c3.303,1.939,3.866,4.029,1.26,4.67l0,0c-2.607,0.641-7.398-0.412-10.701-2.352l-45.585-26.756c-3.303-1.939-3.866-4.029-1.26-4.67   l0,0C304.416,160.755,309.207,161.808,312.51,163.748z"/>
	<path id="rect29456" style="opacity:0.4181;fill:#FFFFFF;enable-background:new    ;" d="M384.51,206.902l45.585,26.758   c3.303,1.938,3.866,4.029,1.26,4.668l0,0c-2.607,0.641-7.398-0.412-10.701-2.352l-45.585-26.756   c-3.303-1.939-3.866-4.029-1.26-4.67l0,0C376.416,203.912,381.207,204.964,384.51,206.902z"/>
	<path id="rect29458" style="opacity:0.4181;fill:#FFFFFF;enable-background:new    ;" d="M314.51,253.748l45.585,26.756   c3.303,1.939,3.866,4.029,1.26,4.67l0,0c-2.607,0.641-7.398-0.412-10.701-2.352l-45.585-26.756c-3.303-1.939-3.866-4.029-1.26-4.67   l0,0C306.416,250.755,311.207,251.808,314.51,253.748z"/>
	
		<path id="path29466" sodipodi:cy="501.82904" sodipodi:rx="9.5964489" sodipodi:type="arc" sodipodi:ry="9.0913725" sodipodi:cx="250.01276" style="opacity:0.3;fill:#FFFFFF;enable-background:new    ;" d="   M438.332,316.966c-1.292,3.645-4.027,6-6.109,5.26c-2.082-0.738-2.723-4.291-1.43-7.934l0,0c1.292-3.645,4.028-5.998,6.11-5.26   S439.625,313.324,438.332,316.966z"/>
	
		<path id="path29470" sodipodi:cy="501.82904" sodipodi:rx="9.5964489" sodipodi:type="arc" sodipodi:ry="9.0913725" sodipodi:cx="250.01276" style="opacity:0.3;fill:#FFFFFF;enable-background:new    ;" d="   M368.332,365.431c-1.292,3.645-4.027,6-6.109,5.26c-2.082-0.738-2.723-4.289-1.43-7.934l0,0c1.292-3.643,4.028-5.998,6.11-5.26   S369.625,361.789,368.332,365.431z"/>
	
		<path id="path29472" sodipodi:cy="501.82904" sodipodi:rx="9.5964489" sodipodi:type="arc" sodipodi:ry="9.0913725" sodipodi:cx="250.01276" style="opacity:0.3;fill:#FFFFFF;enable-background:new    ;" d="   M367.332,436.966c-1.292,3.645-4.027,6-6.109,5.26c-2.082-0.738-2.723-4.291-1.43-7.934l0,0c1.292-3.645,4.028-5.998,6.11-5.26   S368.625,433.324,367.332,436.966z"/>
	
		<path id="path29474" sodipodi:cy="501.82904" sodipodi:rx="9.5964489" sodipodi:type="arc" sodipodi:ry="9.0913725" sodipodi:cx="250.01276" style="opacity:0.3;fill:#FFFFFF;enable-background:new    ;" d="   M440.207,385.966c-1.293,3.645-4.028,6-6.11,5.26c-2.082-0.738-2.722-4.291-1.43-7.934l0,0c1.293-3.645,4.028-5.998,6.11-5.26   S441.5,382.324,440.207,385.966z"/>
	
		<path id="path29476" sodipodi:cy="501.82904" sodipodi:rx="9.5964489" sodipodi:type="arc" sodipodi:ry="9.0913725" sodipodi:cx="250.01276" style="opacity:0.3;fill:#FFFFFF;enable-background:new    ;" d="   M299.332,411.966c-1.292,3.645-4.027,6-6.109,5.26c-2.082-0.738-2.723-4.291-1.43-7.934l0,0c1.292-3.645,4.028-5.998,6.11-5.26   S300.625,408.324,299.332,411.966z"/>
	
		<path id="path29478" sodipodi:cy="501.82904" sodipodi:rx="9.5964489" sodipodi:type="arc" sodipodi:ry="9.0913725" sodipodi:cx="250.01276" style="opacity:0.3;fill:#FFFFFF;enable-background:new    ;" d="   M296.207,483.966c-1.293,3.645-4.028,6-6.11,5.26c-2.082-0.738-2.722-4.291-1.43-7.934l0,0c1.293-3.645,4.028-5.998,6.11-5.26   S297.5,480.324,296.207,483.966z"/>
	<path id="rect29482" style="opacity:0.2486;fill:#FFFFFF;enable-background:new    ;" d="M297.988,321.939l44.547-28.451   c3.228-2.061,5.346-1.613,4.731,1l0,0c-0.614,2.613-3.729,6.402-6.956,8.465l-44.547,28.451c-3.228,2.061-5.347,1.613-4.732-1l0,0   C291.646,327.791,294.761,324.001,297.988,321.939z"/>
	<path id="rect30242" style="opacity:0.2486;fill:#FFFFFF;enable-background:new    ;" d="M371.614,277.597l44.547-28.449   c3.228-2.062,5.347-1.615,4.731,0.998l0,0c-0.614,2.613-3.729,6.402-6.956,8.465l-44.547,28.451c-3.228,2.061-5.347,1.613-4.731-1   l0,0C365.272,283.449,368.387,279.66,371.614,277.597z"/>
	<path id="rect30244" style="opacity:0.2486;fill:#FFFFFF;enable-background:new    ;" d="M442.063,230.113l44.547-28.451   c3.228-2.061,5.346-1.613,4.731,1l0,0c-0.614,2.613-3.729,6.402-6.957,8.465l-44.546,28.451c-3.229,2.061-5.347,1.613-4.732-1l0,0   C435.721,235.964,438.836,232.175,442.063,230.113z"/>
	<path id="rect30246" style="opacity:0.2486;fill:#FFFFFF;enable-background:new    ;" d="M227.615,188.113l44.546-28.451   c3.228-2.061,5.347-1.613,4.731,1l0,0c-0.614,2.613-3.729,6.402-6.956,8.465l-44.547,28.451c-3.228,2.061-5.346,1.613-4.732-1l0,0   C221.272,193.964,224.387,190.175,227.615,188.113z"/>
	<path id="rect30248" style="opacity:0.2486;fill:#FFFFFF;enable-background:new    ;" d="M156.615,235.113l44.546-28.451   c3.228-2.061,5.346-1.613,4.732,1l0,0c-0.614,2.613-3.729,6.402-6.957,8.465l-44.547,28.451c-3.228,2.061-5.346,1.613-4.732-1l0,0   C150.272,240.964,153.387,237.175,156.615,235.113z"/>
	<path id="rect30250" style="opacity:0.2486;fill:#FFFFFF;enable-background:new    ;" d="M294.614,144.113l44.547-28.451   c3.228-2.062,5.347-1.614,4.731,1v0c-0.614,2.613-3.729,6.403-6.956,8.464l-44.547,28.451c-3.228,2.062-5.347,1.614-4.731-0.999   l0,0C288.272,149.965,291.387,146.175,294.614,144.113z"/>
	<path id="rect30252" style="opacity:0.2486;fill:#FFFFFF;enable-background:new    ;" d="M230.063,277.597l44.547-28.449   c3.228-2.062,5.346-1.615,4.731,0.998l0,0c-0.614,2.613-3.729,6.402-6.957,8.465l-44.546,28.451c-3.228,2.061-5.346,1.613-4.731-1   l0,0C223.721,283.449,226.836,279.66,230.063,277.597z"/>
	<path id="rect30254" style="opacity:0.2486;fill:#FFFFFF;enable-background:new    ;" d="M297.063,233.597l44.547-28.449   c3.228-2.062,5.346-1.615,4.731,0.998l0,0c-0.614,2.613-3.729,6.402-6.957,8.465l-44.546,28.451c-3.228,2.061-5.347,1.613-4.732-1   l0,0C290.721,239.449,293.836,235.66,297.063,233.597z"/>
	<path id="rect30256" style="opacity:0.2486;fill:#FFFFFF;enable-background:new    ;" d="M369.614,184.597l44.547-28.45   c3.228-2.062,5.347-1.614,4.731,0.999l0,0c-0.614,2.613-3.729,6.402-6.956,8.464l-44.547,28.451c-3.228,2.061-5.347,1.613-4.731-1   l0,0C363.272,190.449,366.387,186.66,369.614,184.597z"/>
</g>
<metadata><rdf:RDF><cc:Work><dc:format>image/svg+xml</dc:format><dc:type rdf:resource="http://purl.org/dc/dcmitype/StillImage"/><cc:license rdf:resource="http://creativecommons.org/licenses/publicdomain/"/><dc:publisher><cc:Agent rdf:about="http://openclipart.org/"><dc:title>Open Clip Art Library</dc:title></cc:Agent></dc:publisher><dc:title>rubik's cube random petr 01</dc:title><dc:date>2010-04-17T22:06:30</dc:date><dc:description>originally uploaded by Petri Lummemaki from OCAL 0.18</dc:description><dc:source>http://openclipart.org/detail/48715/rubik-s-cube-random-petr-01-by-anonymous</dc:source><dc:creator><cc:Agent><dc:title>Anonymous</dc:title></cc:Agent></dc:creator><dc:subject><rdf:Bag><rdf:li>clip art</rdf:li><rdf:li>clipart</rdf:li><rdf:li>cube</rdf:li><rdf:li>game</rdf:li><rdf:li>rubik</rdf:li><rdf:li>toy</rdf:li></rdf:Bag></dc:subject></cc:Work><cc:License rdf:about="http://creativecommons.org/licenses/publicdomain/"><cc:permits rdf:resource="http://creativecommons.org/ns#Reproduction"/><cc:permits rdf:resource="http://creativecommons.org/ns#Distribution"/><cc:permits rdf:resource="http://creativecommons.org/ns#DerivativeWorks"/></cc:License></rdf:RDF></metadata></svg>
