<?xml version="1.0" encoding="UTF-8" standalone="no"?>
<!-- Created with Inkscape (http://www.inkscape.org/) -->

<svg
   xmlns:dc="http://purl.org/dc/elements/1.1/"
   xmlns:cc="http://creativecommons.org/ns#"
   xmlns:rdf="http://www.w3.org/1999/02/22-rdf-syntax-ns#"
   xmlns:svg="http://www.w3.org/2000/svg"
   xmlns="http://www.w3.org/2000/svg"
   xmlns:xlink="http://www.w3.org/1999/xlink"
   xmlns:sodipodi="http://sodipodi.sourceforge.net/DTD/sodipodi-0.dtd"
   xmlns:inkscape="http://www.inkscape.org/namespaces/inkscape"
   height="128.00000"
   id="svg1931"
   version="1.0"
   width="128.00000"
   x="0.00000000"
   y="0.00000000"
   sodipodi:version="0.32"
   inkscape:version="0.48.4 r9939"
   sodipodi:docname="Secure_Light_Silver_open.svg">
  <title
     id="title3065">Secure Silver Light</title>
  <sodipodi:namedview
     inkscape:window-height="998"
     inkscape:window-width="1272"
     inkscape:pageshadow="2"
     inkscape:pageopacity="0.0"
     guidetolerance="10.0"
     gridtolerance="10.0"
     objecttolerance="10.0"
     borderopacity="1.0"
     bordercolor="#666666"
     pagecolor="#ffffff"
     id="base"
     inkscape:zoom="5.6568542"
     inkscape:cx="107.77286"
     inkscape:cy="83.499391"
     inkscape:window-x="1280"
     inkscape:window-y="0"
     inkscape:current-layer="svg1931"
     showgrid="false"
     inkscape:window-maximized="0"
     showguides="true"
     inkscape:guide-bbox="true"
     inkscape:snap-center="false"
     inkscape:snap-bbox="true">
    <sodipodi:guide
       orientation="1,0"
       position="104.51922,75.837202"
       id="guide3969" />
    <sodipodi:guide
       orientation="0,1"
       position="110.35285,70.533902"
       id="guide3971" />
    <sodipodi:guide
       orientation="0,1"
       position="102,78.3125"
       id="guide4094" />
  </sodipodi:namedview>
  <defs
     id="defs3">
    <linearGradient
       id="linearGradient3057">
      <stop
         id="stop3059"
         offset="0.00000000"
         style="stop-color:#282828;stop-opacity:1.0000000;" />
      <stop
         id="stop3061"
         offset="1.0000000"
         style="stop-color:#282828;stop-opacity:0.00000000;" />
    </linearGradient>
    <linearGradient
       id="linearGradient2834">
      <stop
         id="stop2836"
         offset="0"
         style="stop-color:#a6caf6;stop-opacity:1;" />
      <stop
         id="stop2838"
         offset="1"
         style="stop-color:#819acc;stop-opacity:0;" />
    </linearGradient>
    <linearGradient
       id="linearGradient2780">
      <stop
         id="stop2782"
         offset="0.00000000"
         style="stop-color:#ffffff;stop-opacity:1.0000000;" />
      <stop
         id="stop2784"
         offset="1.0000000"
         style="stop-color:#ffffff;stop-opacity:0.00000000;" />
    </linearGradient>
    <linearGradient
       id="linearGradient2713">
      <stop
         id="stop2715"
         offset="0.00000000"
         style="stop-color:#000000;stop-opacity:1.0000000;" />
      <stop
         id="stop2717"
         offset="1.0000000"
         style="stop-color:#ffffff;stop-opacity:1.0000000;" />
    </linearGradient>
    <linearGradient
       id="linearGradient2701">
      <stop
         id="stop2703"
         offset="0"
         style="stop-color:#adb6c0;stop-opacity:1;" />
      <stop
         id="stop2770"
         offset="0.75"
         style="stop-color:#cad1dc;stop-opacity:1;" />
      <stop
         id="stop2705"
         offset="1"
         style="stop-color:#d7deea;stop-opacity:1;" />
    </linearGradient>
    <linearGradient
       gradientTransform="matrix(2.151801,0.000000,0.000000,1.770850,-5.130350e-2,4.351838)"
       gradientUnits="userSpaceOnUse"
       id="linearGradient2707"
       spreadMethod="reflect"
       x1="29.613848"
       x2="44.723549"
       xlink:href="#linearGradient2701"
       y1="52.608921"
       y2="52.608921" />
    <linearGradient
       gradientTransform="matrix(1.121224,0.000000,0.000000,0.891883,0.000000,4.000000)"
       gradientUnits="userSpaceOnUse"
       id="linearGradient2719"
       spreadMethod="reflect"
       x1="28.071486"
       x2="28.071486"
       xlink:href="#linearGradient2713"
       y1="40.272228"
       y2="42.645634" />
    <linearGradient
       gradientTransform="matrix(2.218790,0.000000,0.000000,1.825981,-5.130350e-2,-1.012826)"
       gradientUnits="userSpaceOnUse"
       id="linearGradient2732"
       spreadMethod="reflect"
       x1="29.093641"
       x2="29.093641"
       xlink:href="#linearGradient2713"
       y1="46.357063"
       y2="47.295517" />
    <linearGradient
       gradientTransform="matrix(2.218790,0.000000,0.000000,1.825981,-5.130350e-2,-1.012826)"
       gradientUnits="userSpaceOnUse"
       id="linearGradient2736"
       spreadMethod="reflect"
       x1="24.261463"
       x2="24.605862"
       xlink:href="#linearGradient2713"
       y1="44.011002"
       y2="45.887836" />
    <linearGradient
       gradientTransform="scale(1.102326,0.907173)"
       gradientUnits="userSpaceOnUse"
       id="linearGradient2740"
       spreadMethod="reflect"
       x1="17.681860"
       x2="17.425413"
       xlink:href="#linearGradient2713"
       y1="60.433849"
       y2="62.779984" />
    <radialGradient
       cx="20.360580"
       cy="22.546398"
       fx="20.360580"
       fy="22.546396"
       gradientTransform="matrix(0.433337,0.000000,0.000000,1.434961,6.409890,-0.113137)"
       gradientUnits="userSpaceOnUse"
       id="radialGradient2788"
       r="15.156592"
       xlink:href="#linearGradient2780" />
    <radialGradient
       cx="20.360580"
       cy="22.546398"
       fx="20.360580"
       fy="22.546396"
       gradientTransform="matrix(0.500069,0.000000,0.000000,1.675192,5.002970,-5.108149)"
       gradientUnits="userSpaceOnUse"
       id="radialGradient2792"
       r="15.156592"
       xlink:href="#linearGradient2780" />
    <radialGradient
       cx="20.360580"
       cy="22.546398"
       fx="20.360580"
       fy="22.546396"
       gradientTransform="matrix(0.621397,0.000000,0.000000,1.882058,2.388831,-9.409409)"
       gradientUnits="userSpaceOnUse"
       id="radialGradient2796"
       r="15.156592"
       xlink:href="#linearGradient2780" />
    <radialGradient
       cx="20.360580"
       cy="22.546398"
       fx="20.360580"
       fy="22.546396"
       gradientTransform="matrix(0.433337,0.000000,0.000000,1.434961,6.409890,-0.113137)"
       gradientUnits="userSpaceOnUse"
       id="radialGradient2811"
       r="15.156592"
       xlink:href="#linearGradient2780" />
    <radialGradient
       cx="20.360580"
       cy="22.546398"
       fx="20.360580"
       fy="22.546396"
       gradientTransform="matrix(0.500069,0.000000,0.000000,1.675192,5.002970,-5.108149)"
       gradientUnits="userSpaceOnUse"
       id="radialGradient2813"
       r="15.156592"
       xlink:href="#linearGradient2780" />
    <radialGradient
       cx="20.360580"
       cy="22.546398"
       fx="20.360580"
       fy="22.546396"
       gradientTransform="matrix(0.621397,0.000000,0.000000,1.882058,2.388831,-9.409409)"
       gradientUnits="userSpaceOnUse"
       id="radialGradient2815"
       r="15.156592"
       xlink:href="#linearGradient2780" />
    <radialGradient
       cx="20.360580"
       cy="22.546398"
       fx="20.360580"
       fy="22.546396"
       gradientTransform="matrix(0.433337,0.000000,0.000000,1.434961,6.409890,-0.113137)"
       gradientUnits="userSpaceOnUse"
       id="radialGradient2817"
       r="15.156592"
       xlink:href="#linearGradient2780" />
    <radialGradient
       cx="20.360580"
       cy="22.546398"
       fx="20.360580"
       fy="22.546396"
       gradientTransform="matrix(0.500069,0.000000,0.000000,1.675192,5.002970,-5.108149)"
       gradientUnits="userSpaceOnUse"
       id="radialGradient2819"
       r="15.156592"
       xlink:href="#linearGradient2780" />
    <radialGradient
       cx="20.360580"
       cy="22.546398"
       fx="20.360580"
       fy="22.546396"
       gradientTransform="matrix(0.621397,0.000000,0.000000,1.882058,2.388831,-9.409409)"
       gradientUnits="userSpaceOnUse"
       id="radialGradient2821"
       r="15.156592"
       xlink:href="#linearGradient2780" />
    <radialGradient
       cx="17.191872"
       cy="14.639010"
       fx="17.191872"
       fy="14.639010"
       gradientTransform="scale(1.896245,0.527358)"
       gradientUnits="userSpaceOnUse"
       id="radialGradient2840"
       r="3.5649405"
       xlink:href="#linearGradient2834" />
    <radialGradient
       cx="21.595108"
       cy="8.9813547"
       fx="21.595108"
       fy="8.9813547"
       gradientTransform="matrix(2.366562,0,0,1.726511,-0.404355,-0.012826)"
       gradientUnits="userSpaceOnUse"
       id="radialGradient2869"
       r="6.0678878"
       xlink:href="#linearGradient2834" />
    <radialGradient
       cx="21.595108"
       cy="8.9813547"
       fx="21.595108"
       fy="8.9813547"
       gradientTransform="matrix(-2.366562,0,0,1.726511,129.1226,-0.112925)"
       gradientUnits="userSpaceOnUse"
       id="radialGradient2873"
       r="6.0678878"
       xlink:href="#linearGradient2834" />
    <linearGradient
       gradientTransform="matrix(2.161083,0,0,1.804543,-0.0513035,2.267068)"
       gradientUnits="userSpaceOnUse"
       id="linearGradient2895"
       x1="33.184048"
       x2="33.184048"
       xlink:href="#linearGradient2780"
       y1="24.384579"
       y2="-13.170087" />
    <radialGradient
       cx="27.270315"
       cy="16.278088"
       fx="27.270315"
       fy="16.278088"
       gradientTransform="scale(0.973329,1.027402)"
       gradientUnits="userSpaceOnUse"
       id="radialGradient2929"
       r="13.638700"
       xlink:href="#linearGradient2780" />
    <linearGradient
       gradientTransform="matrix(2.210222,0,0,1.964283,-1.515862,-2.171324)"
       gradientUnits="userSpaceOnUse"
       id="linearGradient2935"
       x1="33.184048"
       x2="33.184048"
       xlink:href="#linearGradient2780"
       y1="24.384579"
       y2="-13.170087" />
    <linearGradient
       gradientTransform="matrix(1.632005,0,0,2.482509,-0.0513035,-0.012826)"
       gradientUnits="userSpaceOnUse"
       id="linearGradient2943"
       x1="38.781849"
       x2="38.781849"
       xlink:href="#linearGradient2780"
       y1="9.5745525"
       y2="7.5863166" />
    <linearGradient
       gradientTransform="matrix(1.63752,0,0,2.47415,-0.0513035,-0.012826)"
       gradientUnits="userSpaceOnUse"
       id="linearGradient2951"
       x1="38.362892"
       x2="39.723621"
       xlink:href="#linearGradient2780"
       y1="11.170151"
       y2="6.0918369" />
    <radialGradient
       cx="21.595108"
       cy="8.9813547"
       fx="21.595108"
       fy="8.9813547"
       gradientTransform="matrix(3.085042,0,0,2.052895,-15.9848,-3.14928)"
       gradientUnits="userSpaceOnUse"
       id="radialGradient2955"
       r="6.0678878"
       xlink:href="#linearGradient2834" />
    <radialGradient
       cx="21.595108"
       cy="8.9813547"
       fx="21.595108"
       fy="8.9813547"
       gradientTransform="matrix(-2.846279,0,0,2.087943,139.5254,-3.586178)"
       gradientUnits="userSpaceOnUse"
       id="radialGradient2959"
       r="6.0678878"
       xlink:href="#linearGradient2834" />
    <radialGradient
       cx="8.0178375"
       cy="231.98276"
       fx="8.0178375"
       fy="231.98276"
       gradientTransform="scale(3.741657,0.267261)"
       gradientUnits="userSpaceOnUse"
       id="radialGradient3063"
       r="7.4833150"
       xlink:href="#linearGradient3057" />
    <radialGradient
       cx="8.0178375"
       cy="231.98276"
       fx="8.0178375"
       fy="231.98276"
       gradientTransform="scale(3.741657,0.267261)"
       gradientUnits="userSpaceOnUse"
       id="radialGradient3069"
       r="7.4833150"
       xlink:href="#linearGradient3057" />
    <radialGradient
       cx="8.0178375"
       cy="231.98276"
       fx="8.0178375"
       fy="231.98276"
       gradientTransform="scale(3.741657,0.267261)"
       gradientUnits="userSpaceOnUse"
       id="radialGradient3071"
       r="7.4833150"
       xlink:href="#linearGradient3057" />
    <linearGradient
       gradientTransform="matrix(2.136116,0.000000,0.000000,1.825981,2.348697,-1.012826)"
       gradientUnits="userSpaceOnUse"
       id="linearGradient3080"
       spreadMethod="pad"
       x1="26.974447"
       x2="26.974447"
       xlink:href="#linearGradient2780"
       y1="68.680031"
       y2="44.981197" />
    <linearGradient
       gradientTransform="matrix(1.632005,0,0,2.436073,-0.0513035,2.009678)"
       gradientUnits="userSpaceOnUse"
       id="linearGradient3084"
       x1="35.995708"
       x2="35.995708"
       xlink:href="#linearGradient2780"
       y1="1.6246380"
       y2="11.710631" />
    <linearGradient
       gradientTransform="matrix(2.218790,0.000000,0.000000,1.825981,-5.130350e-2,-1.012826)"
       gradientUnits="userSpaceOnUse"
       id="linearGradient3086"
       spreadMethod="reflect"
       x1="17.681860"
       x2="17.425413"
       xlink:href="#linearGradient2713"
       y1="60.433849"
       y2="62.779984" />
    <linearGradient
       inkscape:collect="always"
       xlink:href="#linearGradient2834"
       id="linearGradient2844"
       x1="-70.772484"
       y1="20.994709"
       x2="-58.920631"
       y2="20.994709"
       gradientUnits="userSpaceOnUse" />
    <radialGradient
       inkscape:collect="always"
       xlink:href="#linearGradient3057"
       id="radialGradient3068"
       gradientUnits="userSpaceOnUse"
       gradientTransform="matrix(7.5313045,0,0,0.53794989,3.974348,-2.025652)"
       cx="8.0178375"
       cy="231.98276"
       fx="8.0178375"
       fy="231.98276"
       r="7.4833150" />
    <radialGradient
       inkscape:collect="always"
       xlink:href="#linearGradient3057"
       id="radialGradient3072"
       gradientUnits="userSpaceOnUse"
       gradientTransform="matrix(7.5313045,0,0,0.67243723,3.974348,-34.23087)"
       cx="8.0178375"
       cy="231.98276"
       fx="8.0178375"
       fy="231.98276"
       r="7.4833150" />
    <radialGradient
       inkscape:collect="always"
       xlink:href="#linearGradient3057"
       id="radialGradient3075"
       gradientUnits="userSpaceOnUse"
       gradientTransform="matrix(7.5313045,0,0,0.53794989,3.974348,-0.012826)"
       cx="8.0178375"
       cy="231.98276"
       fx="8.0178375"
       fy="231.98276"
       r="7.4833150" />
    <radialGradient
       inkscape:collect="always"
       xlink:href="#linearGradient2834"
       id="radialGradient3078"
       gradientUnits="userSpaceOnUse"
       gradientTransform="matrix(-2.846279,0,0,2.087943,139.5254,-3.586178)"
       cx="21.595108"
       cy="8.9813547"
       fx="21.595108"
       fy="8.9813547"
       r="6.0678878" />
    <radialGradient
       inkscape:collect="always"
       xlink:href="#linearGradient2834"
       id="radialGradient3081"
       gradientUnits="userSpaceOnUse"
       gradientTransform="matrix(3.085042,0,0,2.052895,-15.9848,-3.14928)"
       cx="21.595108"
       cy="8.9813547"
       fx="21.595108"
       fy="8.9813547"
       r="6.0678878" />
    <linearGradient
       inkscape:collect="always"
       xlink:href="#linearGradient2780"
       id="linearGradient3088"
       gradientUnits="userSpaceOnUse"
       gradientTransform="matrix(2.161083,0,0,1.804543,0.1986965,-4.232932)"
       x1="33.184048"
       y1="24.384579"
       x2="33.184048"
       y2="-13.170087" />
    <linearGradient
       inkscape:collect="always"
       xlink:href="#linearGradient2780"
       id="linearGradient3091"
       gradientUnits="userSpaceOnUse"
       gradientTransform="matrix(2.210222,0,0,1.964283,-1.515862,-2.171324)"
       x1="33.184048"
       y1="24.384579"
       x2="33.184048"
       y2="-13.170087" />
    <linearGradient
       inkscape:collect="always"
       xlink:href="#linearGradient2780"
       id="linearGradient3094"
       gradientUnits="userSpaceOnUse"
       gradientTransform="matrix(1.632005,0,0,2.482509,-0.0513035,-0.012826)"
       x1="38.781849"
       y1="9.5745525"
       x2="38.781849"
       y2="7.5863166" />
    <radialGradient
       inkscape:collect="always"
       xlink:href="#linearGradient2834"
       id="radialGradient3097"
       gradientUnits="userSpaceOnUse"
       gradientTransform="matrix(-2.366562,0,0,1.726511,129.1226,-0.112925)"
       cx="21.595108"
       cy="8.9813547"
       fx="21.595108"
       fy="8.9813547"
       r="6.0678878" />
    <radialGradient
       inkscape:collect="always"
       xlink:href="#linearGradient2834"
       id="radialGradient3100"
       gradientUnits="userSpaceOnUse"
       gradientTransform="matrix(2.366562,0,0,1.726511,-0.404355,-0.012826)"
       cx="21.595108"
       cy="8.9813547"
       fx="21.595108"
       fy="8.9813547"
       r="6.0678878" />
    <linearGradient
       inkscape:collect="always"
       xlink:href="#linearGradient2780"
       id="linearGradient3103"
       gradientUnits="userSpaceOnUse"
       gradientTransform="matrix(1.63752,0,0,2.47415,-0.0513035,-0.012826)"
       x1="38.362892"
       y1="11.170151"
       x2="39.723621"
       y2="6.0918369" />
    <linearGradient
       inkscape:collect="always"
       xlink:href="#linearGradient2780"
       id="linearGradient3106"
       gradientUnits="userSpaceOnUse"
       gradientTransform="matrix(1.632005,0,0,2.436073,-0.0513035,2.009678)"
       x1="35.995708"
       y1="1.6246380"
       x2="35.995708"
       y2="11.710631" />
    <linearGradient
       inkscape:collect="always"
       xlink:href="#linearGradient2780"
       id="linearGradient3978"
       gradientUnits="userSpaceOnUse"
       gradientTransform="matrix(2.161083,0,0,1.804543,0.1986965,-4.232932)"
       x1="33.184048"
       y1="24.384579"
       x2="33.184048"
       y2="-13.170087" />
    <linearGradient
       inkscape:collect="always"
       xlink:href="#linearGradient2780"
       id="linearGradient4001"
       gradientUnits="userSpaceOnUse"
       gradientTransform="matrix(2.210222,0,0,1.964283,-1.515862,-2.171324)"
       x1="33.184048"
       y1="24.384579"
       x2="33.184048"
       y2="-13.170087" />
    <linearGradient
       inkscape:collect="always"
       xlink:href="#linearGradient2780"
       id="linearGradient4103"
       gradientUnits="userSpaceOnUse"
       gradientTransform="matrix(2.161083,0,0,1.804543,0.1986965,-4.232932)"
       x1="33.184048"
       y1="24.384579"
       x2="33.184048"
       y2="-13.170087" />
    <linearGradient
       inkscape:collect="always"
       xlink:href="#linearGradient2780"
       id="linearGradient4115"
       gradientUnits="userSpaceOnUse"
       gradientTransform="matrix(2.210222,0,0,1.964283,-1.515862,-2.171324)"
       x1="33.184048"
       y1="24.384579"
       x2="33.184048"
       y2="-13.170087" />
    <linearGradient
       inkscape:collect="always"
       xlink:href="#linearGradient2780"
       id="linearGradient4120"
       gradientUnits="userSpaceOnUse"
       gradientTransform="matrix(2.210222,0,0,1.964283,-1.515862,-2.171324)"
       x1="33.184048"
       y1="24.384579"
       x2="33.184048"
       y2="-13.170087" />
    <linearGradient
       inkscape:collect="always"
       xlink:href="#linearGradient2780"
       id="linearGradient4129"
       gradientUnits="userSpaceOnUse"
       gradientTransform="matrix(1.632005,0,0,2.482509,-0.0513035,-0.012826)"
       x1="38.781849"
       y1="9.5745525"
       x2="38.781849"
       y2="7.5863166" />
    <linearGradient
       inkscape:collect="always"
       xlink:href="#linearGradient2780"
       id="linearGradient4141"
       gradientUnits="userSpaceOnUse"
       gradientTransform="matrix(1.63752,0,0,2.47415,-0.0513035,-0.012826)"
       x1="38.362892"
       y1="11.170151"
       x2="39.723621"
       y2="6.0918369" />
  </defs>
  <path
     style="fill:#282828;fill-opacity:1;fill-rule:evenodd;stroke:none"
     d="M 100.59375 57.40625 L 90.53125 57.40625 L 90.53125 78.5 L 100.59375 78.5 L 100.59375 57.40625 z "
     id="path4042" />
  <path
     style="fill:#282828;fill-opacity:1;fill-rule:evenodd;stroke:none"
     d="M 64.34375 2 C 44.27185 2 28.125 18.146849 28.125 38.21875 L 28.125 78.5 L 38.1875 78.5 L 38.1875 38.21875 C 38.1875 23.722377 49.847378 12.0625 64.34375 12.0625 C 78.207445 12.0625 89.383984 22.764163 90.34375 36.375 L 100.40625 36.375 C 99.430126 17.187373 83.782832 2 64.34375 2 z "
     id="rect2723" />
  <path
     style="opacity:0.65000000000000002;fill:url(#linearGradient3106);fill-opacity:1;fill-rule:evenodd;stroke:none"
     d="M 64.34375 4.625 C 45.386955 4.625 30.15625 20.929041 30.15625 39.53125 L 30.15625 77.0625 C 30.15625 91.151702 38.922166 103.12738 51.40625 108.125 C 42.461338 104.05212 36.1875 95.315497 36.1875 84.96875 L 36.1875 37.5625 C 36.1875 23.337281 47.847378 10.9375 62.34375 10.9375 L 66.375 10.9375 C 80.458906 10.9375 91.767988 22.663981 92.40625 36.375 L 98.25 36.375 C 96.628298 19.13828 82.207872 4.625 64.34375 4.625 z "
     id="path3082" />
  <path
     style="opacity:0.50000000000000000;fill:url(#linearGradient3103);fill-opacity:1;fill-rule:evenodd;stroke:none"
     d="M 99.5625 57.40625 L 93.375 57.40625 L 93.375 85.15625 C 93.375 95.934979 86.89346 105.03833 77.6875 109.28125 C 90.535918 104.07499 99.5625 91.614936 99.5625 76.9375 L 99.5625 57.40625 z "
     id="path4030" />
  <path
     style="opacity:0.50000000000000000;fill:url(#linearGradient4141);fill-opacity:1;fill-rule:evenodd;stroke:none"
     d="M 64.34375 2.84375 C 44.833724 2.84375 29.15625 18.464889 29.15625 37.84375 L 29.15625 76.9375 C 29.15625 91.614936 38.182833 104.07499 51.03125 109.28125 C 41.825291 105.03833 35.34375 95.934979 35.34375 85.15625 L 35.34375 35.78125 C 35.34375 20.962121 47.36182 6.6875 62.28125 6.6875 L 66.4375 6.6875 C 81.35693 6.6875 93.375 20.962121 93.375 35.78125 L 93.375 36.375 L 99.40625 36.375 C 98.618251 17.698329 83.346366 2.84375 64.34375 2.84375 z "
     id="path2931" />
  <path
     inkscape:connector-curvature="0"
     style="opacity:0.8;fill:url(#radialGradient3100);fill-opacity:1;fill-rule:evenodd;stroke:none"
     id="path2861"
     d="m 49.470641,12.003202 c -5.438394,3.405248 -8.498721,9.210129 -7.899513,11.145143 0.645643,2.084956 4.466662,-7.23357 15.283178,-10.119409 8.340567,-2.225256 -4.93e-4,-5.648705 -7.383665,-1.025734 z" />
  <path
     inkscape:connector-curvature="0"
     style="opacity:0.8;fill:url(#radialGradient3097);fill-opacity:1;fill-rule:evenodd;stroke:none"
     id="path2871"
     d="m 79.247611,11.903104 c 5.438394,3.405248 8.49872,9.210129 7.899512,11.145143 -0.645642,2.084956 -4.466662,-7.23357 -15.283178,-10.119409 -8.340567,-2.225257 4.93e-4,-5.648706 7.383666,-1.025734 z" />
  <path
     style="opacity:0.50000000000000000;fill:url(#linearGradient3094);fill-opacity:1;fill-rule:evenodd;stroke:none"
     d="M 98.5625 57.40625 L 92.53125 57.40625 L 92.53125 84.53125 C 92.53125 95.075223 86.257411 103.97448 77.3125 108.125 C 89.796583 103.03212 98.5625 90.826515 98.5625 76.46875 L 98.5625 57.40625 z "
     id="path4018" />
  <path
     style="opacity:0.50000000000000000;fill:url(#linearGradient4129);fill-opacity:1;fill-rule:evenodd;stroke:none"
     d="M 64.34375 6.28125 C 45.386955 6.28125 30.15625 19.261955 30.15625 38.21875 L 30.15625 76.46875 C 30.15625 90.826515 38.922166 103.03212 51.40625 108.125 C 42.461338 103.97448 36.1875 95.075223 36.1875 84.53125 L 36.1875 36.21875 C 36.1875 21.722377 47.847378 10.03125 62.34375 10.03125 L 66.375 10.03125 C 80.871372 10.03125 92.53125 21.722377 92.53125 36.21875 L 92.53125 36.375 L 98.375 36.375 C 97.39002 18.458011 82.659181 6.28125 64.34375 6.28125 z "
     id="rect2875" />
  <path
     style="opacity:0.80000000000000004;fill:url(#linearGradient4001);fill-opacity:1;fill-rule:evenodd;stroke:none"
     d="M 96.78125 57.40625 L 95.78125 57.40625 C 96.100798 61.39771 96.461758 61.400162 96.78125 57.40625 z "
     id="path4006" />
  <path
     style="opacity:0.80000000000000004;fill:url(#linearGradient4115);fill-opacity:1;fill-rule:evenodd;stroke:none"
     d="M 64.34375 4.03125 C 37.582036 4.03125 31.40625 27.361425 31.40625 37.90625 C 31.40625 69.540728 33.46875 69.540728 33.46875 37.90625 C 33.46875 14.707634 49.927492 5.53125 64.34375 5.53125 C 78.4052 5.53125 94.313002 15.251618 95.09375 36.375 L 97.1875 36.375 C 96.656134 25.297173 89.959896 4.03125 64.34375 4.03125 z "
     id="path2933" />
  <path
     style="opacity:0.59999999999999998;fill:url(#linearGradient4103);fill-opacity:1;fill-rule:evenodd;stroke:none"
     d="M 64.59375 0.59375 C 38.427013 0.59375 32.40625 22.906462 32.40625 32.59375 C 32.40625 61.655613 34.40625 61.655613 34.40625 32.59375 C 34.40625 11.281717 50.498 1.96875 64.59375 1.96875 C 78.689499 1.96875 94.8125 12.151151 94.8125 32.59375 C 94.8125 34.274588 94.854809 35.051268 94.875 36.375 L 96.75 36.375 C 96.770191 35.051268 96.8125 34.274588 96.8125 32.59375 C 96.8125 22.906462 90.760487 0.59375 64.59375 0.59375 z "
     id="path2885" />
  <path
     inkscape:connector-curvature="0"
     style="opacity:0.8;fill:#ffffff;fill-opacity:1;fill-rule:evenodd;stroke:none"
     id="path2897"
     d="m 36.979617,16.487555 c -2.875247,5.248243 3.027063,1.931127 4.397976,0.273813 C 45.231503,12.102333 51.745249,8.725083 57.462695,7.62284 62.257428,6.6984824 62.988478,4.847127 59.040233,4.5406553 51.168146,3.9296066 39.736027,11.456231 36.979617,16.487555 z" />
  <path
     inkscape:connector-curvature="0"
     style="opacity:0.6;fill:#ffffff;fill-opacity:1;fill-rule:evenodd;stroke:none"
     id="path2901"
     d="m 32.623431,25.155638 c 0.30478,2.564767 5.263491,-5.797802 9.167721,-9.723727 C 46.559495,10.637072 53.787418,7.28111 57.264611,6.8376665 63.463032,6.0471897 60.520985,3.0096623 56.635935,3.7770922 42.515997,6.5662613 31.846251,18.615574 32.623431,25.155638 z" />
  <path
     inkscape:connector-curvature="0"
     style="opacity:0.8;fill:#ffffff;fill-opacity:1;fill-rule:evenodd;stroke:none"
     id="path2909"
     d="M 91.579935,16.451601 C 94.474486,21.689224 88.560004,18.393859 87.183,16.741604 83.311963,12.096789 76.785826,8.743542 71.06436,7.662356 66.266258,6.7556569 64.915924,4.9102192 68.863013,4.5892139 76.732798,3.9491874 88.805023,11.430459 91.579935,16.451601 z" />
  <path
     inkscape:connector-curvature="0"
     style="opacity:0.6;fill:#ffffff;fill-opacity:1;fill-rule:evenodd;stroke:none"
     id="path2911"
     d="M 95.798321,24.924688 C 95.502987,27.490558 90.51352,19.146303 86.594864,15.234779 81.808901,10.457527 74.568672,7.128199 71.089869,6.6975603 64.88858,5.9299082 67.797417,3.002405 71.706633,3.6353351 85.848263,5.9367719 96.551418,18.381806 95.798321,24.924688 z" />
  <path
     inkscape:connector-curvature="0"
     style="opacity:0.4;fill:url(#radialGradient3081);fill-opacity:1;fill-rule:evenodd;stroke:none"
     id="path2953"
     d="m 49.032092,11.138281 c -7.089474,4.048982 -11.078905,10.951227 -10.29778,13.25204 0.841657,2.479099 5.822727,-8.601016 19.923104,-12.0324 10.872738,-2.645922 -6.42e-4,-6.7165466 -9.625324,-1.21964 z" />
  <path
     inkscape:connector-curvature="0"
     style="opacity:0.4;fill:url(#radialGradient3078);fill-opacity:1;fill-rule:evenodd;stroke:none"
     id="path2957"
     d="m 79.540422,10.945305 c 6.540791,4.118107 10.221467,11.138193 9.500794,13.478284 -0.776518,2.521425 -5.372083,-8.747857 -18.381176,-12.237822 -10.031254,-2.691095 5.92e-4,-6.8312141 8.880382,-1.240462 z" />
  <g
     id="g3900">
    <path
       d="m 120.71826,124.78239 a 56.359128,4.025652 0 0 1 -112.71826,0 56.359128,4.025652 0 1 1 112.71826,0 z"
       id="path3055"
       style="opacity:0.4;fill:url(#radialGradient3075);fill-opacity:1;fill-rule:evenodd;stroke:none"
       inkscape:connector-curvature="0" />
    <path
       d="m 120.71826,121.76311 a 56.359128,5.032064 0 0 1 -112.71826,0 56.359128,5.032064 0 1 1 112.71826,0 z"
       id="path3065"
       style="opacity:0.4;fill:url(#radialGradient3072);fill-opacity:1;fill-rule:evenodd;stroke:none"
       inkscape:connector-curvature="0" />
    <path
       d="m 120.71826,122.76956 a 56.359128,4.025652 0 0 1 -112.71826,0 56.359128,4.025652 0 1 1 112.71826,0 z"
       id="path3067"
       style="opacity:0.4;fill:url(#radialGradient3068);fill-opacity:1;fill-rule:evenodd;stroke:none"
       inkscape:connector-curvature="0" />
    <g
       id="layer1">
      <rect
         y="57.359127"
         x="24.102608"
         width="80.513039"
         style="fill:url(#linearGradient2707);fill-opacity:1.0000000;fill-rule:evenodd;stroke:none;stroke-width:0.62500000;stroke-linecap:round;stroke-linejoin:round;stroke-miterlimit:4.0000000;stroke-dashoffset:0.00000000;stroke-opacity:1.0000000"
         ry="0.50000000"
         rx="0.49999997"
         id="rect1941"
         height="66.259109" />
      <rect
         y="57.359127"
         x="24.102608"
         width="80.513039"
         style="opacity:0.029999973;fill:url(#linearGradient2732);fill-opacity:1.0000000;fill-rule:evenodd;stroke:none;stroke-width:0.62500000;stroke-linecap:round;stroke-linejoin:round;stroke-miterlimit:4.0000000;stroke-dashoffset:0.00000000;stroke-opacity:1.0000000"
         ry="0.50000000"
         rx="0.49999997"
         id="rect2709"
         height="66.259109" />
      <rect
         y="57.359127"
         x="24.102608"
         width="80.513039"
         style="opacity:0.029999973;fill:url(#linearGradient2736);fill-opacity:1.0000000;fill-rule:evenodd;stroke:none;stroke-width:0.62500000;stroke-linecap:round;stroke-linejoin:round;stroke-miterlimit:4.0000000;stroke-dashoffset:0.00000000;stroke-opacity:1.0000000"
         ry="0.50000000"
         rx="0.49999997"
         id="rect2734"
         height="66.259109" />
      <rect
         y="57.359127"
         x="24.102608"
         width="80.513039"
         style="opacity:0.029999973;fill:url(#linearGradient3086);fill-opacity:1.0000000;fill-rule:evenodd;stroke:none;stroke-width:0.62500000;stroke-linecap:round;stroke-linejoin:round;stroke-miterlimit:4.0000000;stroke-dashoffset:0.00000000;stroke-opacity:1.0000000"
         ry="0.50000000"
         rx="0.49999997"
         id="rect2738"
         height="66.259109" />
      <path
         style="opacity:0.49999997;fill:#ffffff;fill-opacity:1.0000000;fill-rule:evenodd;stroke:none;stroke-width:0.62500000;stroke-linecap:round;stroke-linejoin:round;stroke-miterlimit:4.0000000;stroke-dashoffset:0.00000000;stroke-opacity:1.0000000"
         id="path2727"
         d="M 26.618640,57.359126 C 28.428730,59.480775 44.763964,61.145360 65.274048,61.145360 C 85.502620,61.145360 101.56730,59.498208 103.75791,57.418285 C 103.72708,57.415066 103.73240,57.359126 103.70072,57.359126 L 26.618640,57.359126 z " />
      <g
         transform="matrix(1.719497,0.000000,0.000000,1.981605,4.420926,1.487591)"
         id="g2798">
        <path
           style="opacity:0.40277776;fill:url(#radialGradient2817);fill-opacity:1.0000000;fill-rule:evenodd;stroke:none;stroke-width:1.0000000px;stroke-linecap:butt;stroke-linejoin:miter;stroke-opacity:1.0000000"
           id="path2778"
           d="M 13.971247,30.766863 C 13.531705,33.396386 13.040370,50.075728 14.667687,53.646863 C 16.259550,57.140196 16.060569,36.980196 19.940738,33.806863 C 23.861905,30.600002 14.385794,28.286863 13.971247,30.766863 z " />
        <path
           style="opacity:0.29999998;fill:url(#radialGradient2819);fill-opacity:1.0000000;fill-rule:evenodd;stroke:none;stroke-width:1.0000000px;stroke-linecap:butt;stroke-linejoin:miter;stroke-opacity:1.0000000"
           id="path2790"
           d="M 13.728722,30.941568 C 13.221493,34.011307 12.654496,53.482989 14.532410,57.651979 C 16.369410,61.730142 16.139785,38.195094 20.617473,34.490503 C 25.142472,30.746772 14.207108,28.046383 13.728722,30.941568 z " />
        <path
           style="opacity:0.20000000;fill:url(#radialGradient2821);fill-opacity:1.0000000;fill-rule:evenodd;stroke:none;stroke-width:1.0000000px;stroke-linecap:butt;stroke-linejoin:miter;stroke-opacity:1.0000000"
           id="path2794"
           d="M 13.231668,31.092008 C 12.601372,34.540822 11.896808,56.417020 14.230350,61.100829 C 16.513051,65.682595 16.227713,39.241256 21.791801,35.079193 C 27.414678,30.873157 13.826121,27.839303 13.231668,31.092008 z " />
      </g>
      <g
         transform="matrix(-1.719497,0.000000,0.000000,1.981605,124.2973,1.487605)"
         id="g2803">
        <path
           style="opacity:0.40277776;fill:url(#radialGradient2811);fill-opacity:1.0000000;fill-rule:evenodd;stroke:none;stroke-width:1.0000000px;stroke-linecap:butt;stroke-linejoin:miter;stroke-opacity:1.0000000"
           id="path2805"
           d="M 13.971247,30.766863 C 13.531705,33.396386 13.040370,50.075728 14.667687,53.646863 C 16.259550,57.140196 16.060569,36.980196 19.940738,33.806863 C 23.861905,30.600002 14.385794,28.286863 13.971247,30.766863 z " />
        <path
           style="opacity:0.29999998;fill:url(#radialGradient2813);fill-opacity:1.0000000;fill-rule:evenodd;stroke:none;stroke-width:1.0000000px;stroke-linecap:butt;stroke-linejoin:miter;stroke-opacity:1.0000000"
           id="path2807"
           d="M 13.728722,30.941568 C 13.221493,34.011307 12.654496,53.482989 14.532410,57.651979 C 16.369410,61.730142 16.139785,38.195094 20.617473,34.490503 C 25.142472,30.746772 14.207108,28.046383 13.728722,30.941568 z " />
        <path
           style="opacity:0.20000000;fill:url(#radialGradient2815);fill-opacity:1.0000000;fill-rule:evenodd;stroke:none;stroke-width:1.0000000px;stroke-linecap:butt;stroke-linejoin:miter;stroke-opacity:1.0000000"
           id="path2809"
           d="M 13.231668,31.092008 C 12.601372,34.540822 11.896808,56.417020 14.230350,61.100829 C 16.513051,65.682595 16.227713,39.241256 21.791801,35.079193 C 27.414678,30.873157 13.826121,27.839303 13.231668,31.092008 z " />
      </g>
      <path
         style="opacity:0.24999996;fill:url(#linearGradient3080);fill-opacity:1.0000000;fill-rule:evenodd;stroke:none;stroke-width:0.62500000;stroke-linecap:round;stroke-linejoin:round;stroke-miterlimit:4.0000000;stroke-dashoffset:0.00000000;stroke-opacity:1.0000000"
         id="rect3077"
         d="M 103.11564,114.72466 L 103.11564,122.61182 C 103.11564,123.16937 102.68350,123.61823 102.14673,123.61823 L 26.571520,123.61823 C 26.034743,123.61823 25.602607,123.16937 25.602607,122.61182 L 25.602607,94.596405 C 25.602607,124.11291 103.11564,73.717412 103.11564,114.72466 z " />
      <path
         style="opacity:0.49999997;fill:#000000;fill-opacity:1.0000000;fill-rule:evenodd;stroke:none;stroke-width:0.62500000;stroke-linecap:round;stroke-linejoin:round;stroke-miterlimit:4.0000000;stroke-dashoffset:0.00000000;stroke-opacity:1.0000000"
         id="path2768"
         d="M 25.646537,123.61824 C 27.456628,121.49659 43.791857,119.83200 64.301941,119.83200 C 84.530518,119.83200 100.59520,121.47915 102.78580,123.55908 C 102.75497,123.56230 102.76030,123.61824 102.72862,123.61824 L 25.646537,123.61824 z " />
    </g>
    <g
       transform="matrix(0.64651257,0,0,1,14.842702,-41.6406)"
       id="g3889">
      <path
         inkscape:connector-curvature="0"
         id="path3000"
         d="m 14.305085,135.08475 0,-15.28813 40.20339,0 83.457625,0.39033 0,15.28814 0.1356,13.72678 -83.593225,1.17101 -40.20339,0 z"
         style="fill:#fac800"
         sodipodi:nodetypes="ccccccccc" />
      <path
         style="fill:#030200"
         d="m 58.46875,118.9375 0,0.0312 -3.96875,0 -40.1875,0 0,15.9375 0,15.9375 40.1875,0 40.21875,0 0,-0.0312 c 14.71875,0 29.4375,0 44.15625,0 l 0,-15.9375 0,-15.9375 -40.21875,0 z m 78.625,2.1875 0.0937,10.9375 -17.84375,-10.96875 z m -39.15625,-0.1875 39.21875,24.96875 0.0366,3.16208 -16.9428,-0.19333 -44.0625,-27.78125 z m -55.03125,0.0312 10.84375,0 44.032309,27.75794 L 75.875,148.78124 32.03125,121.125 z m -26.71875,4.59375 0.40625,0.1875 L 52.875,148.7812 31.65625,148.8124 16.125,139 16.03125,125.6875 z"
         id="path3085"
         inkscape:connector-curvature="0"
         sodipodi:nodetypes="ccccccccccccccccccccccccccccccccccccc" />
    </g>
  </g>
  <metadata
     id="metadata90">
    <rdf:RDF>
      <cc:Work>
        <dc:format>image/svg+xml</dc:format>
        <dc:type
           rdf:resource="http://purl.org/dc/dcmitype/StillImage" />
        <cc:license
           rdf:resource="http://creativecommons.org/licenses/publicdomain/" />
        <dc:publisher>
          <cc:Agent
             rdf:about="http://openclipart.org/">
            <dc:title>Open Clip Art Library</dc:title>
          </cc:Agent>
        </dc:publisher>
        <dc:title>Secure Silver Light</dc:title>
        <dc:date>2012-01-15T17:56:23</dc:date>
        <dc:description>Secure Silver Light</dc:description>
        <dc:source>http://openclipart.org/detail/167096/secure-silver-light-by-rygle</dc:source>
        <dc:creator>
          <cc:Agent>
            <dc:title>rygle</dc:title>
          </cc:Agent>
        </dc:creator>
        <dc:subject>
          <rdf:Bag>
            <rdf:li>clip art</rdf:li>
            <rdf:li>clipart</rdf:li>
            <rdf:li>encrypt</rdf:li>
            <rdf:li>encrypted</rdf:li>
            <rdf:li>icon</rdf:li>
            <rdf:li>lock</rdf:li>
            <rdf:li>locked</rdf:li>
            <rdf:li>padlock</rdf:li>
            <rdf:li>protected</rdf:li>
            <rdf:li>resistant</rdf:li>
            <rdf:li>safe</rdf:li>
            <rdf:li>secure</rdf:li>
            <rdf:li>security</rdf:li>
          </rdf:Bag>
        </dc:subject>
      </cc:Work>
      <cc:License
         rdf:about="http://creativecommons.org/licenses/publicdomain/">
        <cc:permits
           rdf:resource="http://creativecommons.org/ns#Reproduction" />
        <cc:permits
           rdf:resource="http://creativecommons.org/ns#Distribution" />
        <cc:permits
           rdf:resource="http://creativecommons.org/ns#DerivativeWorks" />
      </cc:License>
    </rdf:RDF>
  </metadata>
  <path
     sodipodi:type="arc"
     style="fill:#1a1a1a;fill-opacity:1;stroke:none"
     id="path3111"
     sodipodi:cx="95.857162"
     sodipodi:cy="43.810101"
     sodipodi:rx="4.4636116"
     sodipodi:ry="0.66291261"
     d="m 100.32077,43.810101 a 4.4636116,0.66291261 0 1 1 -8.927219,0 4.4636116,0.66291261 0 1 1 8.927219,0 z"
     transform="matrix(1.0910137,0,0,1.2828427,-9.3439575,-19.945431)" />
</svg>
